/* XPM */
static const char * const wxZoom_xpm[] = {
/* columns rows colors chars-per-pixel */
"32 32 20 1",
"  c Gray0",
". c #000000001111",
"X c #000011110000",
"o c #111111111111",
"O c #222222222222",
"+ c Gray20",
"@ c #333333336666",
"# c #444444444444",
"$ c #555555555555",
"% c #777777777777",
"& c Yellow",
"* c #888888888888",
"= c Gray60",
"- c #aaaaaaaaaaaa",
"; c #bbbbbbbbbbbb",
": c Gray80",
"> c #dddddddddddd",
", c #eeeeeeeeeeee",
"< c Gray100",
"1 c None",
/* pixels */
"11111111       11111111111111111",
"111111           111111111111111",
"1111    oOOOOOo   11111111111111",
"111   #OO$%%%*%#   1111111111111",
"11   oO$%****=**%   111111111111",
"11  $O$**=====-;;*   11111111111",
"1  #O$**=;$##:--:;*  11111111111",
"1  #$**;:,$oo::-::;X  1111111111",
"  oO%*=:<<*oo>:;::;-  1111111111",
"  O$*==,<,*oo>::::;-o  111111111",
"  O$*==;,,#oo>>:::;-o  111111111",
"  O%*=-=>>#oo>:;;:;-o  111111111",
"  O%*=-;==ooo:-=-:;-o  111111111",
"  O=*=--;;ooo>=;>-;$#  111111111",
"1  -===-=;:>>;;>>--.$  111111111",
"1   -*=*=;:>>:>,:--oo 1111111111",
"11  :=*=-;++o>>:--@$  1111111111",
"11   :-*=-o+o===-$o  11111111111",
"111   :-*======-@.o   1111111111",
"1111   #:-***$o.;  ;    11111111",
"11111    oooo#$o    %    1111111",
"1111111          1    +   111111",
"111111111      1111  *.+   11111",
"&1111111&1&1111&111   ;.+   1111",
"&1111111&11&11&11111   -.+   111",
"&1111111&11&11&111111   *.#   11",
"1&11&11&1111&&11111111   *.#   1",
"1&11&11&1111&&111111111   *.+   ",
"1&1&1&1&1111&&1111111111   *#   ",
"11&&1&&1111&11&1111111111      1",
"11&&1&&1111&11&11111111111    11",
"11&&1&&111&1111&11111111111  111"
};
